<svg xmlns="http://www.w3.org/2000/svg" width="4096" height="4096" viewBox="0 0 4096 4096" >
<title>Tartan</title>
<desc>
Grid-face texture.
Author: gridMaker.py
</desc>
<rect width="4096" height="4096" x="0" y="0" fill="#4275FF" />
<line x1="0" y1="0" x2="4096" y2="0" stroke="#EBFF00" stroke-width="20" />
<line x1="0" y1="257" x2="4096" y2="257" stroke="#EBFF00" stroke-width="20" />
<line x1="0" y1="514" x2="4096" y2="514" stroke="#EBFF00" stroke-width="20" />
<line x1="0" y1="771" x2="4096" y2="771" stroke="#EBFF00" stroke-width="20" />
<line x1="0" y1="1028" x2="4096" y2="1028" stroke="#EBFF00" stroke-width="20" />
<line x1="0" y1="1285" x2="4096" y2="1285" stroke="#EBFF00" stroke-width="20" />
<line x1="0" y1="1542" x2="4096" y2="1542" stroke="#EBFF00" stroke-width="20" />
<line x1="0" y1="1799" x2="4096" y2="1799" stroke="#EBFF00" stroke-width="20" />
<line x1="0" y1="2056" x2="4096" y2="2056" stroke="#EBFF00" stroke-width="20" />
<line x1="0" y1="2313" x2="4096" y2="2313" stroke="#EBFF00" stroke-width="20" />
<line x1="0" y1="2570" x2="4096" y2="2570" stroke="#EBFF00" stroke-width="20" />
<line x1="0" y1="2827" x2="4096" y2="2827" stroke="#EBFF00" stroke-width="20" />
<line x1="0" y1="3084" x2="4096" y2="3084" stroke="#EBFF00" stroke-width="20" />
<line x1="0" y1="3341" x2="4096" y2="3341" stroke="#EBFF00" stroke-width="20" />
<line x1="0" y1="3598" x2="4096" y2="3598" stroke="#EBFF00" stroke-width="20" />
<line x1="0" y1="3855" x2="4096" y2="3855" stroke="#EBFF00" stroke-width="20" />
<line x1="0" y1="4112" x2="4096" y2="4112" stroke="#EBFF00" stroke-width="20" />
<line x1="0" y1="0" x2="0" y2="4096" stroke="#EBFF00" stroke-width="20" />
<line x1="257" y1="0" x2="257" y2="4096" stroke="#EBFF00" stroke-width="20" />
<line x1="514" y1="0" x2="514" y2="4096" stroke="#EBFF00" stroke-width="20" />
<line x1="771" y1="0" x2="771" y2="4096" stroke="#EBFF00" stroke-width="20" />
<line x1="1028" y1="0" x2="1028" y2="4096" stroke="#EBFF00" stroke-width="20" />
<line x1="1285" y1="0" x2="1285" y2="4096" stroke="#EBFF00" stroke-width="20" />
<line x1="1542" y1="0" x2="1542" y2="4096" stroke="#EBFF00" stroke-width="20" />
<line x1="1799" y1="0" x2="1799" y2="4096" stroke="#EBFF00" stroke-width="20" />
<line x1="2056" y1="0" x2="2056" y2="4096" stroke="#EBFF00" stroke-width="20" />
<line x1="2313" y1="0" x2="2313" y2="4096" stroke="#EBFF00" stroke-width="20" />
<line x1="2570" y1="0" x2="2570" y2="4096" stroke="#EBFF00" stroke-width="20" />
<line x1="2827" y1="0" x2="2827" y2="4096" stroke="#EBFF00" stroke-width="20" />
<line x1="3084" y1="0" x2="3084" y2="4096" stroke="#EBFF00" stroke-width="20" />
<line x1="3341" y1="0" x2="3341" y2="4096" stroke="#EBFF00" stroke-width="20" />
<line x1="3598" y1="0" x2="3598" y2="4096" stroke="#EBFF00" stroke-width="20" />
<line x1="3855" y1="0" x2="3855" y2="4096" stroke="#EBFF00" stroke-width="20" />
<line x1="4112" y1="0" x2="4112" y2="4096" stroke="#EBFF00" stroke-width="20" />
</svg>